<svg id="https-24px" xmlns="http://www.w3.org/2000/svg" width="25.607" height="25.607" viewBox="0 0 25.607 25.607">
  <path id="Tracé_40" data-name="Tracé 40" d="M0,0H25.607V25.607H0Z" fill="none"/>
  <path id="Tracé_41" data-name="Tracé 41" d="M18.938,8.469H17.871V6.335a5.335,5.335,0,0,0-10.67,0V8.469H6.134A2.14,2.14,0,0,0,4,10.6v10.67a2.14,2.14,0,0,0,2.134,2.134h12.8a2.14,2.14,0,0,0,2.134-2.134V10.6A2.14,2.14,0,0,0,18.938,8.469Zm-6.4,9.6a2.134,2.134,0,1,1,2.134-2.134A2.14,2.14,0,0,1,12.536,18.071Zm3.308-9.6H9.228V6.335a3.308,3.308,0,0,1,6.615,0Z" transform="translate(0.268 0.067)" fill="#fff"/>
</svg>
