<svg xmlns="http://www.w3.org/2000/svg" width="80" height="80" viewBox="0 0 67.493 69.387">
  <path id="Tracé_66" data-name="Tracé 66" d="M62.212,40.49a25.565,25.565,0,0,0,.217-3.4,20.876,20.876,0,0,0-.253-3.4l7.336-5.71a1.773,1.773,0,0,0,.434-2.2l-6.939-12a1.765,1.765,0,0,0-2.132-.8l-8.637,3.469a25.529,25.529,0,0,0-5.855-3.4l-1.3-9.179A1.748,1.748,0,0,0,43.347,2.4H29.47a1.712,1.712,0,0,0-1.7,1.482l-1.3,9.179a26.093,26.093,0,0,0-5.855,3.4l-8.637-3.469a1.725,1.725,0,0,0-2.132.8l-6.9,12a1.644,1.644,0,0,0,.434,2.2l7.336,5.71a20.106,20.106,0,0,0-.072,6.794L3.305,46.2a1.773,1.773,0,0,0-.434,2.2l6.939,12a1.765,1.765,0,0,0,2.132.8l8.637-3.469a25.53,25.53,0,0,0,5.855,3.4l1.3,9.179a1.776,1.776,0,0,0,1.735,1.482H43.347a1.686,1.686,0,0,0,1.7-1.482l1.3-9.179a24.787,24.787,0,0,0,5.855-3.4L60.838,61.2a1.725,1.725,0,0,0,2.132-.8l6.939-12a1.673,1.673,0,0,0-.434-2.2ZM36.409,50.1a13.01,13.01,0,1,1,13.01-13.01A13.048,13.048,0,0,1,36.409,50.1Z" transform="translate(-2.662 -2.4)" fill="#f5eef9"/>
</svg>
